# xmcd
#
# Track frame offsets:
#	150
#	16637
#	30527
#	46137
#	65297
#	80630
#	96510
#	113657
#	128732
#	145592
#	159850
#	180060
#
# Disc length: 2659 seconds
#
# Revision: 0
# Processed by: cddbd v1.5.2PL0 Copyright (c) Steve Scherf et al.
# Submitted via: dBpowerAMP V4.0
#
DISCID=820a610c
DTITLE=Os Mateadores - Galope do Mouro
DYEAR=1900
DGENRE=Gaucho
TTITLE0=Galope do Mouro
TTITLE1=Um tal de Mario Cuiudo
TTITLE2=Lancante abaixo
TTITLE3=Cheiro de China
TTITLE4=Baio da Sant'ana
TTITLE5=Vaneira da restinga funda
TTITLE6=Sentimento Gaiteiro
TTITLE7=Te Ajeita minha "fia"
TTITLE8=Retoco de gaita e pandeiro
TTITLE9=Pra que eu nao viva sozinho
TTITLE10=Baile da Cascavel
TTITLE11=No meu mate, os teus olhos
EXTD=
EXTT0=
EXTT1=
EXTT2=
EXTT3=
EXTT4=
EXTT5=
EXTT6=
EXTT7=
EXTT8=
EXTT9=
EXTT10=
EXTT11=
PLAYORDER=
